<?xml version="1.0" encoding="UTF-8"?>
<svg xmlns="http://www.w3.org/2000/svg" xmlns:xlink="http://www.w3.org/1999/xlink" width="40px" height="40px" version="1.1" viewBox="0 0 40 40">
    <path d="M12.1485446,12.4393645 C12.7330239,11.4765628 13.7913948,10.8333333 15,10.8333333 C16.8409492,10.8333333 18.3333333,12.3257175 18.3333333,14.1666667 C18.3333333,16.0076158 16.8409492,17.5 15,17.5 C13.1590508,17.5 11.6666667,16.0076158 11.6666667,14.1666667 C11.6666667,14.1251432 11.6674259,14.083797 11.6689313,14.0426413 C11.3502937,13.9424418 11.0537668,13.8072353 10.7605778,13.626651 C10.1564261,13.2545351 9.73201139,12.7400072 9.50066689,12.0897262 L6.45527297,14.5397816 C6.06203368,14.8561473 5.83333333,15.3336644 5.83333333,15.8383667 L5.83333333,31.8068698 C5.83333333,32.7273444 6.57952542,33.4735365 7.5,33.4735365 L22.5,33.4735365 C23.4204746,33.4735365 24.1666667,32.7273444 24.1666667,31.8068698 L24.1666667,15.8383667 C24.1666667,15.3336644 23.9379663,14.8561473 23.544727,14.5397816 L16.5670905,8.92619068 C15.6520472,8.19002752 14.3479528,8.19002752 13.4329095,8.92619068 L10.9527853,10.9214799 C10.9767476,11.5539814 11.2215086,11.9531087 11.6346362,12.2075669 C11.7895614,12.3029902 11.9585079,12.3791896 12.1485446,12.4393645 Z M14.2791957,12.6635024 C14.6446101,12.7518284 14.9160353,13.0809851 14.9160353,13.4735365 C14.9160353,13.9337738 14.5429392,14.3068698 14.082702,14.3068698 C13.8176538,14.3068698 13.570436,14.3028648 13.3380651,14.2932066 C13.4027284,15.1545674 14.1220971,15.8333333 15,15.8333333 C15.9204746,15.8333333 16.6666667,15.0871412 16.6666667,14.1666667 C16.6666667,13.2461921 15.9204746,12.5 15,12.5 C14.7418129,12.5 14.4973378,12.5587078 14.2791957,12.6635024 Z M9.34579822,10.0752396 C9.39405358,9.71040538 9.47727915,9.32337914 9.59641616,8.91463096 C10.1821443,6.90505096 8.49587032,6.18142018 3.457538,6.94084398 C3.00244141,7.00944032 2.57790441,6.69611996 2.50930806,6.24102337 C2.44071172,5.78592679 2.75403207,5.36138978 3.20912866,5.29279344 C8.70358775,4.46461802 11.7009983,5.46123164 11.3899216,8.43071822 L12.3881824,7.6276056 C13.9132547,6.40066699 16.0867453,6.40066699 17.6118176,7.6276056 L24.5894541,13.2411965 C25.3759326,13.8739278 25.8333333,14.8289622 25.8333333,15.8383667 L25.8333333,31.8068698 C25.8333333,33.647819 24.3409492,35.1402032 22.5,35.1402032 L7.5,35.1402032 C5.65905083,35.1402032 4.16666667,33.647819 4.16666667,31.8068698 L4.16666667,15.8383667 C4.16666667,14.8289622 4.62406735,13.8739278 5.41054595,13.2411965 L9.34579822,10.0752396 Z M23.4530533,10.3874368 C23.0291878,10.5667589 22.5402077,10.3685172 22.3608856,9.94465171 C22.1815636,9.52078621 22.3798052,9.03180608 22.8036707,8.85248403 L26.1901073,7.41980616 C28.1478269,6.59156633 30.4662689,7.212791 31.747584,8.90892755 L37.0029454,15.865695 C37.6532642,16.7265523 37.8748573,17.8206425 37.6007069,18.8437856 L33.5551792,33.9419005 C33.0523404,35.8185205 31.0690733,36.9001902 29.1390713,36.3830477 L26.8346522,35.7655805 C26.3900971,35.6464623 26.1262784,35.1895148 26.2453965,34.7449597 C26.3645147,34.3004047 26.8214622,34.0365859 27.2660173,34.1557041 L29.5704363,34.7731713 C30.6283609,35.0566414 31.6855166,34.4800709 31.9453028,33.5105355 L35.9908305,18.4124205 C36.1308443,17.8898821 36.0163846,17.3247505 35.6730872,16.8703118 L30.4177258,9.91354437 C29.5967377,8.82676413 28.0938765,8.42407368 26.8394898,8.95475894 L23.4530533,10.3874368 Z"/>
</svg>
