<?xml version="1.0" encoding="UTF-8"?>
<svg width="40px" height="40px" viewBox="0 0 40 40" version="1.1" xmlns="http://www.w3.org/2000/svg" xmlns:xlink="http://www.w3.org/1999/xlink">
    <path d="M20.7619853,20.0864746 C21.2571898,20.2914572 21.6535126,20.6899177 21.8567691,21.1873482 L26.6170333,21.1873482 C27.0394811,21.1873482 27.3790186,21.5320128 27.3790186,21.9519489 C27.3829668,22.3758466 27.0394811,22.7165495 26.6209814,22.7165495 L21.8541971,22.7165495 C21.5529263,23.4473947 20.8350332,23.9605112 20,23.9605112 C18.8945291,23.9605112 17.9943599,23.0572524 17.9943599,21.9479872 C17.9943599,21.1092076 18.5090539,20.3882172 19.2380147,20.0864746 L19.2380147,13.0342492 C19.2380147,12.6103514 19.5815003,12.2696486 20,12.2696485 C20.4224479,12.2696485 20.7619853,12.6143131 20.7619853,13.0342492 L20.7619853,20.0864746 Z M20.7593898,6.52920129 C20.7611089,6.55011231 20.7619853,6.57125294 20.7619853,6.59258785 L20.7619853,7.92482106 C22.9755889,8.04656014 25.0774156,8.69519989 26.9274989,9.75686864 C26.9627418,9.68715834 27.0092815,9.62186875 27.0671179,9.56383386 C28.1686408,8.45456871 29.965031,8.45456871 31.070502,9.56383386 C32.1440822,10.6410988 32.1750529,12.3722313 31.1634143,13.4835933 C32.3866629,15.0978161 33.2730436,16.9914186 33.7038917,19.0678594 C33.7907502,19.4798722 33.5262268,19.8879233 33.1116751,19.9750799 C32.6971235,20.0582747 32.2944163,19.7968051 32.2075578,19.3808306 C31.0073322,13.6166134 25.8747885,9.43309903 19.9960519,9.43309903 C13.3741445,9.43309903 7.93807582,14.6371135 7.54301607,21.1873482 L8.83079526,21.1873482 C9.2532431,21.1873482 9.59278059,21.5320128 9.59278063,21.9519489 C9.59278063,22.3758466 9.25324314,22.7165495 8.83079526,22.7165495 L7.5430003,22.7165495 C7.92262805,29.0151712 12.9604173,34.0690104 19.2380147,34.4479811 L19.2380147,33.1594888 C19.2380147,32.7355911 19.5815003,32.3948882 20,32.3948882 C20.4224479,32.3948882 20.7619853,32.7395527 20.7619853,33.1594888 L20.7619853,34.4468673 C26.5529707,34.0844172 31.4562134,29.6446441 32.3299493,23.8376997 C32.3694304,23.5841533 32.4010152,23.3226837 32.4207558,23.0651757 C32.4309147,22.948967 32.4389824,22.8327582 32.445497,22.7165495 L31.1692047,22.7165495 C30.7467569,22.7165495 30.4072194,22.371885 30.4072194,21.9519489 C30.4072194,21.5280511 30.750705,21.1873482 31.1692047,21.1873482 L33.2380147,21.1873482 C33.6604625,21.1873482 34,21.5320128 34,21.9519489 C34,21.9911458 33.9970968,22.0296314 33.9914934,22.0672021 C33.9902362,22.1912124 33.9872219,22.3152228 33.9842076,22.4392332 C33.9763113,22.6927795 33.9605189,22.9463258 33.9368303,23.1998722 C33.9131416,23.4851118 33.8776086,23.7782747 33.8341794,24.067476 C32.819515,30.8696486 26.8697123,36 20,36 C12.2814439,36 6,29.6969968 6,21.9519489 C6,18.8403859 7.01383775,15.9615718 8.727392,13.6307061 C8.70862458,13.6151539 8.69042347,13.5985713 8.67287085,13.5809585 C7.56739992,12.4716933 7.56739992,10.6691374 8.67287085,9.56383386 C9.77834179,8.45456871 11.5747321,8.45456871 12.676255,9.56383386 C12.7647016,9.65258404 12.8267295,9.75830024 12.8623386,9.87084705 C14.7484857,8.74440299 16.9192468,8.04991583 19.2380147,7.92446176 L19.2380147,6.59258785 C19.2380147,6.57123697 19.2388861,6.55009715 19.2405946,6.52920129 L17.9311901,6.52920129 C17.5087422,6.52920129 17.1692048,6.18453677 17.1692048,5.76460063 C17.1692048,5.34070286 17.5126904,5 17.9311901,5 L22.06881,5 C22.4912578,5 22.8307953,5.34466453 22.8307953,5.76460063 C22.8307953,6.18453673 22.4912578,6.52920125 22.06881,6.52920129 L20.7593898,6.52920129 Z M9.70090865,12.4467036 C10.2923802,11.801952 10.9430336,11.2126684 11.6441207,10.6876308 C11.6284469,10.674283 11.6131978,10.6601952 11.5984208,10.6453674 C11.0891145,10.1343131 10.2600113,10.1343131 9.75070503,10.6453674 C9.50592216,10.8909904 9.36773831,11.2198083 9.36773831,11.5723961 C9.36773831,11.8969916 9.48410622,12.2044155 9.70090865,12.4467036 Z M28.2076876,10.5863842 C28.907902,11.0956777 29.5609603,11.6687768 30.15745,12.2980238 C30.298517,12.08593 30.3756345,11.8357959 30.3756345,11.5723961 C30.3756345,11.2237699 30.2413988,10.8949521 29.9926678,10.6453674 C29.5037735,10.1547951 28.720202,10.135134 28.2076876,10.5863842 Z"></path>
</svg>
