<?xml version="1.0" encoding="UTF-8"?>
<svg width="40px" height="40px" viewBox="0 0 40 40" version="1.1" xmlns="http://www.w3.org/2000/svg" xmlns:xlink="http://www.w3.org/1999/xlink">
    <path d="M36.5205078,16.1127344 C37.4658594,15.4851562 37.4923047,15.0052734 37.4923047,14.1691016 L37.4923047,8.33855469 C37.4923047,6.72847656 36.1869922,5.42316406 34.5769141,5.42316406 L5.42304688,5.42316406 C3.81300781,5.42316406 2.50769531,6.72847656 2.50769531,8.33855469 L2.50769531,14.1691016 C2.50769531,15.0400391 2.56832031,15.6209766 3.47949219,16.1127344 C4.80714844,16.7309766 6.39488281,17.9801172 6.39488281,20.0000781 C6.39488281,22.6214062 4.74710938,23.4742578 3.53679688,23.8830078 C2.68492188,24.4161328 2.50765625,25.2940625 2.50765625,25.8306641 L2.50765625,31.6614453 C2.50765625,33.2717187 3.81296875,34.5768359 5.42304688,34.5768359 L34.5769141,34.5768359 C36.1869922,34.5768359 37.4923047,33.2717578 37.4923047,31.6614453 L37.4923047,25.8307031 C37.4923047,24.7692969 37.2485547,24.4328906 36.5205078,23.8870703 C34.3979297,22.7928125 33.6051172,21.8187109 33.6051172,19.9998828 C33.6051563,18.1810547 34.3476172,17.2759766 36.5205469,16.1127344 L36.5205078,16.1127344 Z M35.54875,25.4738281 L35.54875,30.6898438 C35.54875,31.7630469 34.6785938,32.6334375 33.6051172,32.6334375 L6.39484375,32.6334375 C5.32140625,32.6334375 4.45121094,31.763125 4.45121094,30.6898438 L4.45121094,25.4738281 C6.71085938,24.6705078 8.3384375,22.5350781 8.3384375,20.0000781 C8.3384375,17.4648438 6.71085938,15.3294531 4.45121094,14.5263672 L4.45121094,9.3103125 C4.45121094,8.236875 5.32136719,7.36671875 6.39484375,7.36671875 L33.6050781,7.36671875 C34.6785156,7.36671875 35.5487109,8.23683594 35.5487109,9.3103125 L35.5487109,14.5263281 C33.2892578,15.3294531 31.6614844,17.4648828 31.6614844,20.0000781 C31.6614844,22.5351172 33.2892578,24.6705469 35.5487109,25.4738672 L35.54875,25.4738281 Z M25.3448438,18.05625 L21.6761719,18.05625 L25.6585938,13.7774609 C25.8308203,13.5892969 25.8308203,13.2839844 25.6585938,13.095625 L25.0353125,12.4138281 C24.8630859,12.2254687 24.5842188,12.2254687 24.4119922,12.4138281 L19.9953516,17.1589844 L15.5769922,12.4123047 C15.4061328,12.2255078 15.1291406,12.2255078 14.9585156,12.4123047 L14.3400391,13.0888672 C14.1691797,13.2756641 14.1691797,13.5784766 14.3400391,13.7652734 L18.3343359,18.0562891 L14.6550781,18.0562891 C14.3866406,18.0562891 14.1691406,18.2740234 14.1691406,18.5422266 L14.1691406,19.5142187 C14.1691406,19.7826172 14.3866406,20.0001562 14.6550781,20.0001562 L19.028125,20.0001562 L19.028125,21.9437109 L14.6550781,21.9437109 C14.3866406,21.9437109 14.1691406,22.1612109 14.1691406,22.4296484 L14.1691406,23.4014062 C14.1691406,23.6696484 14.3866406,23.8873438 14.6550781,23.8873438 L19.028125,23.8873438 L19.028125,27.2886328 C19.028125,27.5568359 19.245625,27.7745312 19.5140625,27.7745312 L20.4858203,27.7745312 C20.7542578,27.7745312 20.9717578,27.5568359 20.9717578,27.2885937 L20.9717578,23.8873437 L25.3448047,23.8873437 C25.6132422,23.8873437 25.8307422,23.6696484 25.8307422,23.4014062 L25.8307422,22.4296875 C25.8307422,22.16125 25.6132422,21.94375 25.3448047,21.94375 L20.9717578,21.94375 L20.9717578,20.0001562 L25.3448047,20.0001562 C25.6132422,20.0001562 25.8307422,19.7826562 25.8307422,19.5142187 L25.8307422,18.5422656 C25.8307422,18.2740234 25.6132422,18.0563281 25.3448047,18.0563281 L25.3448438,18.05625 Z"></path>
</svg>
