<?xml version="1.0" encoding="UTF-8"?>
<svg width="256px" height="75px" viewBox="0 0 256 75" version="1.1" xmlns="http://www.w3.org/2000/svg" xmlns:xlink="http://www.w3.org/1999/xlink">
    <!-- Generator: Sketch 54.1 (76490) - https://sketchapp.com -->
    <title>切片</title>
    <desc>Created with Sketch.</desc>
    <defs>
        <path d="M192.028986,59.7826087 L192.028986,68.8405797 L3.62318841,68.8405797 C1.6221567,68.8405797 -7.74855007e-15,67.218423 -7.99360578e-15,65.2173913 L-7.28828762e-15,59.7826087 C2.0010317,59.7826087 3.62318841,58.160452 3.62318841,56.1594203 C3.62318841,54.1583886 2.0010317,52.5362319 -4.4408921e-16,52.5362319 L-5.87765131e-15,48.9130435 C2.0010317,48.9130435 3.62318841,47.2908868 3.62318841,45.2898551 C3.62318841,43.2888234 2.0010317,41.6666667 -4.4408921e-16,41.6666667 L-4.46701499e-15,38.0434783 C2.0010317,38.0434783 3.62318841,36.4213216 3.62318841,34.4202899 C3.62318841,32.4192582 2.0010317,30.7971014 -4.4408921e-16,30.7971014 L-3.05637868e-15,27.173913 C2.0010317,27.173913 3.62318841,25.5517563 3.62318841,23.5507246 C3.62318841,21.5496929 2.0010317,19.9275362 -4.4408921e-16,19.9275362 L-1.64574237e-15,16.3043478 C2.0010317,16.3043478 3.62318841,14.6821911 3.62318841,12.6811594 C3.62318841,10.6801277 2.0010317,9.05797101 -4.4408921e-16,9.05797101 L0,3.62318841 C-2.45055707e-16,1.6221567 1.6221567,-5.20594859e-16 3.62318841,-8.8817842e-16 L192.028986,0 L192.028986,9.05797101 C190.027954,9.05797101 188.405797,10.6801277 188.405797,12.6811594 C188.405797,14.6821911 190.027954,16.3043478 192.028986,16.3043478 L192.028986,19.9275362 C190.027954,19.9275362 188.405797,21.5496929 188.405797,23.5507246 C188.405797,25.5517563 190.027954,27.173913 192.028986,27.173913 L192.028986,30.7971014 C190.027954,30.7971014 188.405797,32.4192582 188.405797,34.4202899 C188.405797,36.4213216 190.027954,38.0434783 192.028986,38.0434783 L192.028986,41.6666667 C190.027954,41.6666667 188.405797,43.2888234 188.405797,45.2898551 C188.405797,47.2908868 190.027954,48.9130435 192.028986,48.9130435 L192.028986,52.5362319 C190.027954,52.5362319 188.405797,54.1583886 188.405797,56.1594203 C188.405797,58.160452 190.027954,59.7826087 192.028986,59.7826087 Z" id="path-1"></path>
        <filter x="-2.6%" y="-5.8%" width="105.2%" height="114.5%" filterUnits="objectBoundingBox" id="filter-2">
            <feOffset dx="0" dy="1" in="SourceAlpha" result="shadowOffsetOuter1"></feOffset>
            <feGaussianBlur stdDeviation="1.5" in="shadowOffsetOuter1" result="shadowBlurOuter1"></feGaussianBlur>
            <feColorMatrix values="0 0 0 0 0   0 0 0 0 0   0 0 0 0 0  0 0 0 0.1 0" type="matrix" in="shadowBlurOuter1"></feColorMatrix>
        </filter>
        <linearGradient x1="20.5299999%" y1="0%" x2="85.4570637%" y2="100%" id="linearGradient-3">
            <stop stop-color="#FFE6BB" offset="0%"></stop>
            <stop stop-color="#DFAD64" offset="100%"></stop>
        </linearGradient>
    </defs>
    <g id="页面1" stroke="none" stroke-width="1" fill="none" fill-rule="evenodd">
        <g id="切片" transform="translate(-606.000000, -1235.000000)">
            <g id="优惠券3-1" transform="translate(609.000000, 1238.000000)">
                <g id="形状结合">
                    <use fill="black" fill-opacity="1" filter="url(#filter-2)" xlink:href="#path-1"></use>
                    <use fill="#FFFFFF" fill-rule="evenodd" xlink:href="#path-1"></use>
                </g>
                <path d="M14.4927536,65.2173913 L177.536232,65.2173913" id="直线-4" stroke="#FF0050" stroke-width="0.5" stroke-linecap="round" stroke-dasharray="2.173913043478261"></path>
                <path d="M14.4927536,3.62318841 L177.536232,3.62318841" id="直线-4" stroke="#FF0050" stroke-width="0.5" stroke-linecap="round" stroke-dasharray="2.173913043478261"></path>
                <text id="￥" font-family="PingFangSC-Semibold, PingFang SC" font-size="13.7681159" font-weight="500" fill="#FF0050">
                    <tspan x="14.4927536" y="30.2173913">￥</tspan>
                </text>
                <text id="200" font-family="PingFangSC-Semibold, PingFang SC" font-size="43.4782609" font-weight="500" fill="#FF0050">
                    <tspan x="28.2608696" y="49.9855072">200</tspan>
                </text>
                <text id="满20000使用" font-family="PingFangSC-Regular, PingFang SC" font-size="7.24637681" font-weight="normal" fill="#999999">
                    <tspan x="117.391304" y="42.4202899">满20000使用</tspan>
                </text>
                <text id="06.07-06.23可用" font-family="PingFangSC-Regular, PingFang SC" font-size="7.24637681" font-weight="normal" fill="#999999">
                    <tspan x="117.391304" y="52.2028986">06.07-06.23可用</tspan>
                </text>
                <text id="优惠券" font-family="PingFangSC-Semibold, PingFang SC" font-size="13.7681159" font-weight="500" fill="#FF0050">
                    <tspan x="117.391304" y="30.2173913">优惠券</tspan>
                </text>
                <path d="M192.028986,59.7826087 C194.030017,59.7826087 195.652174,58.160452 195.652174,56.1594203 C195.652174,54.1583886 194.030017,52.5362319 192.028986,52.5362319 L192.028986,48.9130435 C194.030017,48.9130435 195.652174,47.2908868 195.652174,45.2898551 C195.652174,43.2888234 194.030017,41.6666667 192.028986,41.6666667 L192.028986,38.0434783 C194.030017,38.0434783 195.652174,36.4213216 195.652174,34.4202899 C195.652174,32.4192582 194.030017,30.7971014 192.028986,30.7971014 L192.028986,27.173913 C194.030017,27.173913 195.652174,25.5517563 195.652174,23.5507246 C195.652174,21.5496929 194.030017,19.9275362 192.028986,19.9275362 L192.028986,16.3043478 C194.030017,16.3043478 195.652174,14.6821911 195.652174,12.6811594 C195.652174,10.6801277 194.030017,9.05797101 192.028986,9.05797101 L192.028986,0 L246.376812,0 C248.377843,-3.92212991e-15 250,1.6221567 250,3.62318841 L250,65.2173913 C250,67.218423 248.377843,68.8405797 246.376812,68.8405797 L192.028986,68.8405797 L192.028986,59.7826087 Z" id="形状结合" fill="url(#linearGradient-3)"></path>
                <text id="立即-领取" font-family="PingFangSC-Semibold, PingFang SC" font-size="10.1449275" font-weight="500" fill="#333333">
                    <tspan x="210.869565" y="30.9275362">立即</tspan>
                    <tspan x="210.869565" y="44.9275362">领取</tspan>
                </text>
            </g>
        </g>
    </g>
</svg>