<?xml version="1.0" encoding="UTF-8"?>
<svg width="41px" height="40px" viewBox="0 0 41 40" version="1.1" xmlns="http://www.w3.org/2000/svg" xmlns:xlink="http://www.w3.org/1999/xlink">
    <path d="M6,4 L16,4 C17.1045695,4 18,4.8954305 18,6 L18,19 C18,20.1045695 17.1045695,21 16,21 L6,21 C4.8954305,21 4,20.1045695 4,19 L4,6 C4,4.8954305 4.8954305,4 6,4 Z M6,6 L6,19 L16,19 L16,6 L6,6 Z M24,19 L34,19 C35.1045695,19 36,19.8954305 36,21 L36,34 C36,35.1045695 35.1045695,36 34,36 L24,36 C22.8954305,36 22,35.1045695 22,34 L22,21 C22,19.8954305 22.8954305,19 24,19 Z M24,21 L24,34 L34,34 L34,21 L24,21 Z M6,24 L16,24 C17.1045695,24 18,24.8954305 18,26 L18,34 C18,35.1045695 17.1045695,36 16,36 L6,36 C4.8954305,36 4,35.1045695 4,34 L4,26 C4,24.8954305 4.8954305,24 6,24 Z M6,26 L6,34 L16,34 L16,26 L6,26 Z M24,4 L34,4 C35.1045695,4 36,4.8954305 36,6 L36,14 C36,15.1045695 35.1045695,16 34,16 L24,16 C22.8954305,16 22,15.1045695 22,14 L22,6 C22,4.8954305 22.8954305,4 24,4 Z M24,6 L24,14 L34,14 L34,6 L24,6 Z"></path>
</svg>
