<?xml version="1.0" encoding="UTF-8"?>
<svg width="40px" height="40px" viewBox="0 0 40 40" version="1.1" xmlns="http://www.w3.org/2000/svg" xmlns:xlink="http://www.w3.org/1999/xlink">
    <path d="M20,37 C29.3888407,37 37,29.3888407 37,20 C37,10.6111593 29.3888407,3 20,3 C10.6111593,3 3,10.6111593 3,20 C3,29.3888407 10.6111593,37 20,37 Z M20,35 C11.7157288,35 5,28.2842712 5,20 C5,11.7157288 11.7157288,5 20,5 C28.2842712,5 35,11.7157288 35,20 C35,28.2842712 28.2842712,35 20,35 Z"></path>
    <path d="M23.2141331,26 L28.8535086,26 C29.0677016,26 29.4462776,25.7802992 29.5923558,25.6257398 C29.666555,25.5874805 29.5349661,25.6846638 29.5923558,25.6257398 C29.7476122,25.4688069 30.0161269,25.1098969 29.99924,24.8894736 L29.9977188,19.9910427 C29.9977188,19.567017 29.6527619,19.2218576 29.2290424,19.2218576 C28.8053229,19.2218576 28.4604175,19.5670428 28.4604175,19.9910427 L28.4604175,23.1145045 L21.4251267,16.2204232 C21.2798477,16.0792017 21.0893737,16 20.8874786,16 C20.852261,16 20.8170434,16.0022961 20.7941494,16.0065012 C20.5983386,16.0313711 20.4606395,16.0918688 20.3451382,16.18753 L14.9107517,20.6959377 L10.3031532,16.2188753 C10.0301268,15.9498475 9.48092855,15.9617149 9.2162811,16.2333999 C8.92103096,16.5376169 8.92943575,17.0251846 9.23311645,17.3213783 L14.319478,22.2634604 C14.4296425,22.369828 14.565769,22.4425285 14.69429,22.4631932 C14.7730783,22.4800139 14.8242805,22.4853799 14.8763076,22.4853799 C15.0568299,22.4853799 15.2380999,22.4211156 15.3734787,22.3093561 L20.8261959,17.7844631 L27.6404358,24.4630745 L23.2141331,24.4630745 C22.7911355,24.4630745 22.4462301,24.8067634 22.4462301,25.2307891 C22.4462301,25.6548148 22.7911355,26 23.2141331,26"></path>
</svg>
