<?xml version="1.0" encoding="UTF-8"?>
<svg xmlns="http://www.w3.org/2000/svg" xmlns:xlink="http://www.w3.org/1999/xlink" width="40px" height="40px" version="1.1" viewBox="0 0 40 40">
    <path d="M31,35 L9,35 C8.45,35 8,34.5439056 8,33.986457 L8,19.8510266 C8,19.293578 8.45,18.8374836 9,18.8374836 C9.55,18.8374836 10,19.293578 10,19.8510266 L10,32.9729139 L30,32.9729139 L30,19.8510266 C30,19.293578 30.45,18.8374836 31,18.8374836 C31.55,18.8374836 32,19.293578 32,19.8510266 L32,33.986457 C32,34.5439056 31.55,35 31,35 Z M33,20.8103976 L7,20.8103976 C6.45,20.8103976 6,20.3543032 6,19.7968545 L6,14.7291394 C6,14.1716907 6.45,13.7155963 7,13.7155963 L33,13.7155963 C33.55,13.7155963 34,14.1716907 34,14.7291394 L34,19.7968545 C34,20.3543032 33.55,20.8103976 33,20.8103976 Z M8,18.7833115 L32,18.7833115 L32,15.7426824 L8,15.7426824 L8,18.7833115 Z M20,35 C19.45,35 19,34.5439056 19,33.986457 L19,14.7291394 C19,14.1716907 19.45,13.7155963 20,13.7155963 C20.55,13.7155963 21,14.1716907 21,14.7291394 L21,33.986457 C21,34.5439056 20.55,35 20,35 Z M21.4,15.7426824 C20.7,15.7426824 20.1,15.5399738 19.65,15.0838794 C17.7,13.1074705 20.75,8.24246396 21.75,7.17824377 C22.5,6.46876365 23.5,6.01266929 24.6,6.01266929 C25.65,6.01266929 26.65,6.4180865 27.45,7.17824377 C29,8.74923547 29,11.3337702 27.45,12.9047619 C26.65,13.7155963 23.6,15.7426824 21.4,15.7426824 Z M24.6,8.03975535 C24.05,8.03975535 23.55,8.24246396 23.2,8.64788117 C22.05,9.81345566 20.65,13.0567934 21.1,13.6649192 C21.7,14.0703364 24.85,12.7020533 26.05,11.4858017 C26.85,10.6749672 26.85,9.40803844 26.05,8.59720402 C25.6,8.24246396 25.1,8.03975535 24.6,8.03975535 L24.6,8.03975535 Z M18.2246055,15.7426824 C16.0246055,15.7426824 12.9746055,13.7155963 12.1746055,12.9047619 C10.6246055,11.3337702 10.6246055,8.74923547 12.1746055,7.17824377 C12.9746055,6.4180865 13.9746055,6.01266929 15.0246055,6.01266929 C16.1246055,6.01266929 17.1246055,6.46876365 17.8746055,7.17824377 C18.8746055,8.24246396 21.9246055,13.1074705 19.9746055,15.0838794 C19.5246055,15.5399738 18.9246055,15.7426824 18.2246055,15.7426824 Z M15.0636717,8.03975535 C14.5636717,8.03975535 14.0636717,8.24246396 13.6136717,8.59720402 C12.8136717,9.40803844 12.8136717,10.6749672 13.6136717,11.4858017 C14.8136717,12.7020533 17.9636717,14.0703364 18.5636717,13.6649192 C19.0136717,13.0567934 17.6136717,9.81345566 16.4636717,8.64788117 C16.1136717,8.24246396 15.6136717,8.03975535 15.0636717,8.03975535 Z"/>
</svg>
