<?xml version="1.0" encoding="UTF-8"?>
<svg width="40px" height="40px" viewBox="0 0 40 40" version="1.1" xmlns="http://www.w3.org/2000/svg" xmlns:xlink="http://www.w3.org/1999/xlink">
    <path d="M28.2659871,7.7918 L30.7448001,7.7918 L30.7448001,7.7916 L30.7454001,7.7916 C32.8160001,7.7924 34.4946001,9.471 34.4934001,11.5416 L34.4934001,32.537 C34.4934001,34.6074 32.8154001,36.2866 30.7448001,36.2866 L9.74940007,36.2866 C7.67860007,36.2862 5.99960007,34.607 6.00000007,32.536 L6.00000007,11.5412 C6.00000007,9.4708 7.67860007,7.7918 9.74940007,7.7918 L12.2271052,7.7918 C12.6552756,6.71596725 13.3024662,5.72882334 14.1458001,4.8858 C15.7602531,3.26232532 17.9570381,2.35211138 20.2466001,2.358 C22.5361104,2.35207561 24.7328465,3.26229913 26.3472001,4.8858 C27.1871583,5.72116358 27.836121,6.71244381 28.2659871,7.7918 Z M25.9548087,7.7918 C24.8332726,5.79503183 22.694767,4.4432 20.2470001,4.4432 C17.7985545,4.4432 15.6601993,5.79503183 14.5388299,7.7918 L25.9548087,7.7918 Z M11.6894109,9.8766 L9.74940007,9.8766 C8.83090829,9.87869188 8.08702974,10.623107 8.08560007,11.5416 L8.08560007,32.536 C8.08648228,33.4544933 8.83090666,34.1988282 9.74940007,34.1996 L30.7450001,34.1996 C31.6634095,34.1989378 32.4076692,33.4544096 32.4080001,32.536 L32.4080001,11.5418 C32.4088258,11.1003184 32.233375,10.6767743 31.9206001,10.3652 C31.6072001,10.0518 31.1888001,9.8776 30.7448001,9.8776 L30.7448001,9.8766 L28.8051345,9.8766 C28.8519037,10.2426596 28.8752182,10.6132994 28.8742001,10.9864 C28.8742001,11.5622673 28.4073674,12.0291 27.8315001,12.0291 C27.2556328,12.0291 26.7888001,11.5622673 26.7888001,10.9864 C26.7888001,10.6081991 26.7565557,10.2373979 26.6946736,9.8766 L13.7991032,9.8766 C13.7372356,10.2373979 13.7050001,10.6081991 13.7050001,10.9864 C13.7045584,11.5623872 13.2373874,12.029021 12.6614001,12.0288 C12.0857766,12.0286896 11.6192001,11.5620235 11.6192001,10.9864 C11.6192001,10.6122555 11.6428389,10.2417523 11.6894109,9.8766 Z M18.0800001,20.9102 L20.1946001,24.8124 L18.5304001,25.922 L17.1092001,23.1286 L16.8666001,27.031 L15.2030001,28.1404 L15.0984001,24.03 L13.4348001,26.595 L11.9788001,25.1394 L14.8908001,20.009 L12.4644001,20.009 L12.4644001,18.2062 L15.0988001,18.2062 L15.2034001,16.493 L12.9846001,16.493 L12.9846001,14.829 L19.0852001,14.829 L19.0852001,16.493 L16.8668001,16.493 L16.8668001,18.1568 L19.3278001,18.2062 L19.3278001,20.009 L17.1094001,20.009 L17.1094001,21.4648 C17.3400001,21.3262 18.0800001,20.9102 18.0800001,20.9102 Z M22.9680001,15.9384 L22.9680001,23.1488 L21.3042001,24.258 L21.3042001,15.9384 L22.9680001,15.9384 Z M28.5144001,15.9384 L28.5144001,20.3754 L26.8504001,21.4848 L26.8504001,15.9384 L28.5144001,15.9384 Z M28.5144001,21.4848 L28.5144001,23.7036 L18.5308001,31.4684 L14.6484001,30.359 L24.0772001,24.258 L24.0772001,14.2746 L25.7412001,14.2746 L25.7412001,23.7036 L28.5144001,21.4848 Z"></path>
</svg>
