<?xml version="1.0" encoding="UTF-8"?>
<svg width="40px" height="40px" viewBox="0 0 40 40" version="1.1" xmlns="http://www.w3.org/2000/svg" xmlns:xlink="http://www.w3.org/1999/xlink">
    <path d="M36.5205078,16.1127344 C37.4658594,15.4851562 37.4923047,15.0052734 37.4923047,14.1691016 L37.4923047,8.33855469 C37.4923047,6.72847656 36.1869922,5.42316406 34.5769141,5.42316406 L5.42304688,5.42316406 C3.81300781,5.42316406 2.50769531,6.72847656 2.50769531,8.33855469 L2.50769531,14.1691016 C2.50769531,15.0400391 2.56832031,15.6209766 3.47949219,16.1127344 C4.80714844,16.7309766 6.39488281,17.9801172 6.39488281,20.0000781 C6.39488281,22.6214062 4.74710938,23.4742578 3.53679688,23.8830078 C2.68492188,24.4161328 2.50765625,25.2940625 2.50765625,25.8306641 L2.50765625,31.6614453 C2.50765625,33.2717187 3.81296875,34.5768359 5.42304688,34.5768359 L34.5769141,34.5768359 C36.1869922,34.5768359 37.4923047,33.2717578 37.4923047,31.6614453 L37.4923047,25.8307031 C37.4923047,24.7692969 37.2485547,24.4328906 36.5205078,23.8870703 C34.3979297,22.7928125 33.6051172,21.8187109 33.6051172,19.9998828 C33.6051563,18.1810547 34.3476172,17.2759766 36.5205469,16.1127344 L36.5205078,16.1127344 Z M35.54875,25.4738281 L35.54875,30.6898438 C35.54875,31.7630469 34.6785938,32.6334375 33.6051172,32.6334375 L6.39484375,32.6334375 C5.32140625,32.6334375 4.45121094,31.763125 4.45121094,30.6898438 L4.45121094,25.4738281 C6.71085938,24.6705078 8.3384375,22.5350781 8.3384375,20.0000781 C8.3384375,17.4648438 6.71085938,15.3294531 4.45121094,14.5263672 L4.45121094,9.3103125 C4.45121094,8.236875 5.32136719,7.36671875 6.39484375,7.36671875 L33.6050781,7.36671875 C34.6785156,7.36671875 35.5487109,8.23683594 35.5487109,9.3103125 L35.5487109,14.5263281 C33.2892578,15.3294531 31.6614844,17.4648828 31.6614844,20.0000781 C31.6614844,22.5351172 33.2892578,24.6705469 35.5487109,25.4738672 L35.54875,25.4738281 Z" ></path>
    <path d="M13.76,14.74 L16.72,14.74 C16.1,13.5 15.44,12.38 14.72,11.42 L16.56,10.52 C17.3,11.6 18.02,12.78 18.7,14.08 L17.38,14.74 L21.06,14.74 C21.92,13.38 22.66,11.96 23.3,10.44 L25.4,11.18 C24.78,12.5 24.08,13.68 23.32,14.74 L26.32,14.74 L26.32,21.9 L23.38,21.9 L23.38,25.9 C23.38,26.52 23.58,26.84 24,26.84 L26.54,26.84 C26.72,26.84 26.84,26.72 26.92,26.5 C27.02,26.26 27.08,25.58 27.1,24.42 L29.08,25.06 C28.96,26.9 28.72,27.98 28.38,28.32 C28.06,28.64 27.56,28.82 26.92,28.82 L23.36,28.82 C21.98,28.82 21.3,27.98 21.3,26.32 L21.3,21.9 L18.88,21.9 C18.54,25.26 16.36,27.72 12.36,29.24 L11.18,27.32 C14.64,26.26 16.56,24.46 16.92,21.9 L13.76,21.9 L13.76,14.74 Z M24.3,19.96 L24.3,16.7 L15.78,16.7 L15.78,19.96 L24.3,19.96 Z"></path>
</svg>
