<?xml version="1.0" encoding="UTF-8"?>
<svg width="41px" height="40px" viewBox="0 0 41 40" version="1.1" xmlns="http://www.w3.org/2000/svg" xmlns:xlink="http://www.w3.org/1999/xlink">
    <path d="M29.3084455,9.11267606 C30.1747586,9.11267606 30.8819529,9.74295775 30.8819529,10.5176056 L30.8819529,30.4823944 C30.8819529,31.2570423 30.1782946,31.8873239 29.3084455,31.8873239 L10.6950904,31.8873239 C9.82877737,31.8873239 9.12158303,31.2570423 9.12158303,30.4823944 L9.12158303,10.5176056 C9.12158303,9.74295775 9.8252414,9.11267606 10.6950904,9.11267606 L29.3084455,9.11267606 L29.3084455,9.11267606 Z M29.3084455,7 L10.6950904,7 C8.65483476,7 7,8.57394366 7,10.5176056 L7,30.4823944 C7,32.4260563 8.65483476,34 10.6950904,34 L29.3049096,34 C31.3451652,34 33,32.4260563 33,30.4823944 L33,10.5176056 C33,8.57394366 31.3487012,7 29.3084455,7 L29.3084455,7 Z M27.9647763,15.9014085 C27.6041072,19.943662 24.1706786,23.1373239 20.0229838,23.1373239 C15.871753,23.1373239 12.4347885,19.9330986 12.0811914,15.8873239 C11.5118999,15.5070423 11.1370869,14.8626761 11.1370869,14.1302817 C11.1370869,12.9647887 12.0882633,12.0176056 13.2586699,12.0176056 C14.4290766,12.0176056 15.380253,12.9647887 15.380253,14.1302817 C15.380253,14.9507042 14.9135047,15.6584507 14.2275262,16.0105634 C14.4007888,17.2535211 14.9771522,18.4049296 15.8894329,19.3133803 C16.999728,20.4190141 18.4671563,21.028169 20.0194478,21.028169 C21.5717394,21.028169 23.0391677,20.4190141 24.1494628,19.3133803 C25.0652795,18.4014085 25.6416429,17.2464789 25.8149055,16 C25.1430709,15.6443662 24.6869305,14.943662 24.6869305,14.1338028 C24.6869305,12.9683099 25.6381069,12.0211268 26.8085135,12.0211268 C27.9789202,12.0211268 28.9300966,12.9683099 28.9300966,14.1338028 C28.9336325,14.8732394 28.5482116,15.5246479 27.9647763,15.9014085 Z"></path>
</svg>
