<?xml version="1.0" encoding="UTF-8"?>
<svg width="120px" height="125px" viewBox="0 0 120 125" version="1.1" xmlns="http://www.w3.org/2000/svg" xmlns:xlink="http://www.w3.org/1999/xlink">
    <!-- Generator: Sketch 54.1 (76490) - https://sketchapp.com -->
    <title>切片复制 33</title>
    <desc>Created with Sketch.</desc>
    <g id="页面1" stroke="none" stroke-width="1" fill="none" fill-rule="evenodd">
        <g id="切片" transform="translate(-617.000000, -357.000000)">
            <g id="编组-2复制-3" transform="translate(617.000000, 357.000000)">
                <rect id="矩形" fill="#FFFFFF" x="0" y="0" width="120" height="125" rx="2.5"></rect>
                <rect id="矩形复制-10" fill="#CCCCCC" x="33.75" y="5" width="25" height="25"></rect>
                <rect id="矩形复制-22" fill="#CCCCCC" x="5" y="5" width="25" height="25"></rect>
                <text id="热区1" font-family="PingFangSC-Regular, PingFang SC" font-size="8" font-weight="normal" fill="#FFFFFF">
                    <tspan x="8.792" y="21">热区1</tspan>
                </text>
                <text id="热区2" font-family="PingFangSC-Regular, PingFang SC" font-size="8" font-weight="normal" fill="#FFFFFF">
                    <tspan x="36.2" y="21">热区2</tspan>
                </text>
                <rect id="矩形复制-13" fill="#CCCCCC" x="61" y="5" width="25" height="25"></rect>
                <text id="热区3" font-family="PingFangSC-Regular, PingFang SC" font-size="8" font-weight="normal" fill="#FFFFFF">
                    <tspan x="63.2" y="21">热区3</tspan>
                </text>
                <rect id="矩形复制-18" fill="#CCCCCC" x="90" y="5" width="25" height="25"></rect>
                <text id="热区4" font-family="PingFangSC-Regular, PingFang SC" font-size="8" font-weight="normal" fill="#FFFFFF">
                    <tspan x="92.2" y="21">热区4</tspan>
                </text>
                <rect id="矩形复制-11" fill="#E4E4E4" x="33.75" y="32.5" width="25" height="3.75"></rect>
                <rect id="矩形复制-23" fill="#E4E4E4" x="5" y="32.5" width="25" height="3.75"></rect>
                <rect id="矩形复制-15" fill="#E4E4E4" x="61.25" y="32.5" width="25" height="3.75"></rect>
                <rect id="矩形复制-19" fill="#E4E4E4" x="90" y="32.5" width="25" height="3.75"></rect>
                <rect id="矩形复制-12" fill="#E4E4E4" x="33.75" y="40" width="12.5" height="3.75"></rect>
                <rect id="矩形复制-24" fill="#E4E4E4" x="5" y="40" width="12.5" height="3.75"></rect>
                <rect id="矩形复制-16" fill="#E4E4E4" x="61.25" y="40" width="12.5" height="3.75"></rect>
                <rect id="矩形复制-20" fill="#E4E4E4" x="90" y="40" width="12.5" height="3.75"></rect>
                <rect id="矩形复制-14" fill="#E4E4E4" x="33.75" y="47.5" width="25" height="7.5"></rect>
                <rect id="矩形复制-25" fill="#E4E4E4" x="5" y="47.5" width="25" height="7.5"></rect>
                <rect id="矩形复制-17" fill="#E4E4E4" x="61.25" y="47.5" width="25" height="7.5"></rect>
                <rect id="矩形复制-21" fill="#E4E4E4" x="90" y="47.5" width="25" height="7.5"></rect>
            </g>
        </g>
    </g>
</svg>