<?xml version="1.0" encoding="UTF-8"?>
<svg width="41px" height="40px" viewBox="0 0 41 40" version="1.1" xmlns="http://www.w3.org/2000/svg" xmlns:xlink="http://www.w3.org/1999/xlink">
    <!-- Generator: Sketch 54.1 (76490) - https://sketchapp.com -->
    <title>图片广告</title>
    <desc>Created with Sketch.</desc>
    <g id="页面1" stroke="none" stroke-width="1">
        <g id="切片" transform="translate(-96.000000, -867.000000)">
            <g id="icon/图片广告/未选" transform="translate(96.000000, 867.000000)">
                <g id="编组">
                    <g>
                        <rect id="矩形" fill="#000000" opacity="0" x="0" y="0" width="40" height="40"></rect>
                        <path d="M31.6354648,7 L8.42312151,7 C7.35481824,7 6.4887432,7.86343401 6.4887432,8.92858891 L6.4887432,32.0713132 C6.4887432,33.136517 7.35481824,34 8.42312151,34 L31.6354648,34 C32.7037189,34 33.5698431,33.1364681 33.5698431,32.0713132 L33.5698431,8.92858891 C33.5698431,7.86343401 32.7037189,7 31.6354648,7 Z M24.1167293,24.1638048 L20.4039899,27.3787562 L14.8325482,22.2355097 L9.26145032,27.3787562 L8.42317062,28.3334053 L8.42317062,8.92853995 L31.6354648,8.92853995 L31.6354648,32.0713132 L24.1167293,24.1638048 Z M25.5098352,20.4444533 C27.5061883,20.4444533 29.1260767,18.8265733 29.1260767,16.8335023 C29.1260767,14.8388155 27.5061883,13.2217679 25.5098352,13.2217679 C23.5125,13.2217679 21.8934956,14.8387665 21.8934956,16.8335023 C21.8934956,18.8267692 23.5125,20.4444533 25.5098352,20.4444533 Z M5.34839797,9.63201712 L2.93437831,9.63201712 C1.86602593,9.63201712 1,10.4954511 1,11.560606 L1,29.3282516 C1,30.3934555 1.86602593,31.2569385 2.93437831,31.2569385 L5.34839797,31.2569385 L5.34839797,29.3282516 L2.93437831,29.3282516 L2.93437831,11.560655 L5.34839797,11.560655 L5.34839797,9.63201712 Z M34.6515529,31.2691788 L37.0656217,31.2691788 C38.133925,31.2691788 39,30.4056958 39,29.3405899 L39,11.5728464 C39,10.5077404 38.133925,9.6442085 37.0656217,9.6442085 L34.6515529,9.6442085 L34.6515529,11.5728464 L37.0656217,11.5728464 L37.0656217,29.3405899 L34.6515529,29.3405899 L34.6515529,31.2691788 Z"></path>
                    </g>
                </g>
            </g>
        </g>
    </g>
</svg>
