<?xml version="1.0" encoding="UTF-8"?>
<svg width="41px" height="40px" viewBox="0 0 41 40" version="1.1" xmlns="http://www.w3.org/2000/svg" xmlns:xlink="http://www.w3.org/1999/xlink">
    <!-- Generator: Sketch 54.1 (76490) - https://sketchapp.com -->
    <title>图文导航</title>
    <desc>Created with Sketch.</desc>
    <g id="页面1" stroke="none" stroke-width="1">
        <g id="切片" transform="translate(-316.000000, -867.000000)">
            <g id="icon/图文导航/未选" transform="translate(316.000000, 867.000000)">
                <g id="编组">
                    <g>
                        <rect id="矩形" fill="#000000" opacity="0" x="0" y="0" width="40" height="40"></rect>
                        <path d="M33.0357143,35 L7.96428571,35 C7.43172542,35 7,34.580267 7,34.0625 L7,5.9375 C7,5.41973305 7.43172542,5 7.96428571,5 L33.0357143,5 C33.5682746,5 34,5.41973305 34,5.9375 L34,34.0625 C34,34.580267 33.5682746,35 33.0357143,35 Z M8.92857143,33.125 L32.0714286,33.125 L32.0714286,6.875 L8.92857143,6.875 L8.92857143,33.125 Z M27.25,12.5 L23.3928571,12.5 C22.8602968,12.5 22.4285714,12.080267 22.4285714,11.5625 C22.4285714,11.044733 22.8602968,10.625 23.3928571,10.625 L27.25,10.625 C27.7825603,10.625 28.2142857,11.044733 28.2142857,11.5625 C28.2142857,12.080267 27.7825603,12.5 27.25,12.5 Z M27.25,18.125 L23.3928571,18.125 C22.8602968,18.125 22.4285714,17.705267 22.4285714,17.1875 C22.4285714,16.669733 22.8602968,16.25 23.3928571,16.25 L27.25,16.25 C27.7825603,16.25 28.2142857,16.669733 28.2142857,17.1875 C28.2142857,17.705267 27.7825603,18.125 27.25,18.125 Z M27.25,23.75 L13.75,23.75 C13.2174397,23.75 12.7857143,23.330267 12.7857143,22.8125 C12.7857143,22.294733 13.2174397,21.875 13.75,21.875 L27.25,21.875 C27.7825603,21.875 28.2142857,22.294733 28.2142857,22.8125 C28.2142857,23.330267 27.7825603,23.75 27.25,23.75 Z M27.25,29.375 L13.75,29.375 C13.2174397,29.375 12.7857143,28.955267 12.7857143,28.4375 C12.7857143,27.919733 13.2174397,27.5 13.75,27.5 L27.25,27.5 C27.7825603,27.5 28.2142857,27.919733 28.2142857,28.4375 C28.2142857,28.955267 27.7825603,29.375 27.25,29.375 Z M19.5357143,18.125 L13.75,18.125 C13.2174397,18.125 12.7857143,17.705267 12.7857143,17.1875 L12.7857143,11.5625 C12.7857143,11.044733 13.2174397,10.625 13.75,10.625 L19.5357143,10.625 C20.0682746,10.625 20.5,11.044733 20.5,11.5625 L20.5,17.1875 C20.5,17.705267 20.0682746,18.125 19.5357143,18.125 Z M14.7142857,16.25 L18.5714286,16.25 L18.5714286,12.5 L14.7142857,12.5 L14.7142857,16.25 Z"></path>
                    </g>
                </g>
            </g>
        </g>
    </g>
</svg>
