<?xml version="1.0" encoding="UTF-8"?>
<svg width="41px" height="40px" viewBox="0 0 41 40" version="1.1" xmlns="http://www.w3.org/2000/svg" xmlns:xlink="http://www.w3.org/1999/xlink">
    <path d="M34,30.2812275 L34,32.1133161 C34,33.1552615 33.1535532,34 32.1094839,34 L30.3287476,34 C29.2847725,34 28.4383256,33.1552615 28.4383256,32.1133161 L28.4383256,32.0859089 L11.5615802,32.0859089 L11.5615802,32.1133161 C11.5615802,33.1552615 10.7153845,34 9.67115826,34 L7.89035919,34 C6.84638405,34 6,33.1552615 6,32.1133161 L6,30.2812275 C6,29.2575745 6.81697763,28.4249891 7.83565759,28.3958592 L7.83565759,11.6040782 C6.81694624,11.5749795 6,10.7424255 6,9.71877251 L6,7.88668388 C6,6.84473848 6.84638405,6 7.89035919,6 L9.67115826,6 C10.6968054,6 11.5312009,6.81542055 11.5601366,7.83208863 L28.4394868,7.83208863 C28.4686108,6.81538923 29.302818,6 30.3284651,6 L32.1092014,6 C33.1533335,6 33.9997175,6.84480112 33.9997175,7.88674652 L33.9997175,9.71883516 C33.9997175,10.751697 33.1680838,11.5902023 32.1366621,11.6047673 L32.1366621,28.3952014 C33.1682407,28.409829 33.9998745,29.2484596 33.9998745,30.2811962 L33.9998745,30.2811962 L34,30.2812275 Z M28.4382001,9.7186159 L28.4382001,9.69120865 L11.5615802,9.69120865 L11.5615802,9.7186159 C11.5615802,10.7514778 10.7301034,11.589983 9.6986189,11.604548 L9.6986189,28.3949821 C10.7117126,28.4093592 11.5314833,29.2187345 11.5601993,30.2263817 L28.4395496,30.2263817 C28.4681401,29.227912 29.2735057,28.4242061 30.2738577,28.3956399 L30.2738577,11.6038589 C29.2553033,11.5747603 28.4382001,10.7422376 28.4382001,9.71855326 L28.4382001,9.71855326 L28.4382001,9.7186159 Z M21.2054482,14.8594646 L21.2054482,24.1836935 L25.068535,24.1836935 L25.068535,26.0430327 L14.7260795,26.0430327 L14.7260795,24.1836935 L18.6164387,24.1836935 L18.6164387,14.8594646 L14.8630868,14.8594646 L14.8630868,16.7188038 L13,16.7188038 L13,13 L26.8217928,13 L26.8217928,16.7188038 L24.9588315,16.7188038 L24.9588628,14.8594646 L21.2054482,14.8594646 Z"></path>
</svg>
