<?xml version="1.0" encoding="UTF-8"?>
<svg width="41px" height="40px" viewBox="0 0 41 40" version="1.1" xmlns="http://www.w3.org/2000/svg" xmlns:xlink="http://www.w3.org/1999/xlink">
    <path d="M33.0357143,35 L7.96428571,35 C7.43172542,35 7,34.580267 7,34.0625 L7,5.9375 C7,5.41973305 7.43172542,5 7.96428571,5 L33.0357143,5 C33.5682746,5 34,5.41973305 34,5.9375 L34,34.0625 C34,34.580267 33.5682746,35 33.0357143,35 Z M8.92857143,33.125 L32.0714286,33.125 L32.0714286,6.875 L8.92857143,6.875 L8.92857143,33.125 Z M27.0625,23.75 L13.9375,23.75 C13.419733,23.75 13,23.330267 13,22.8125 C13,22.294733 13.419733,21.875 13.9375,21.875 L27.0625,21.875 C27.580267,21.875 28,22.294733 28,22.8125 C28,23.330267 27.580267,23.75 27.0625,23.75 Z M27.0625,17.875 L13.9375,17.875 C13.419733,17.875 13,17.455267 13,16.9375 C13,16.419733 13.419733,16 13.9375,16 L27.0625,16 C27.580267,16 28,16.419733 28,16.9375 C28,17.455267 27.580267,17.875 27.0625,17.875 Z M27.0625,29.375 L13.9375,29.375 C13.419733,29.375 13,28.955267 13,28.4375 C13,27.919733 13.419733,27.5 13.9375,27.5 L27.0625,27.5 C27.580267,27.5 28,27.919733 28,28.4375 C28,28.955267 27.580267,29.375 27.0625,29.375 Z M26.5694779,9.72614091 L29.5694779,12.7261409 C29.8623711,13.0190341 30.3372449,13.0190341 30.6301381,12.7261409 C30.9230313,12.4332477 30.9230313,11.958374 30.6301381,11.6654807 L27.6301381,8.66548074 C27.3372449,8.37258752 26.8623711,8.37258752 26.5694779,8.66548074 C26.2765847,8.95837395 26.2765847,9.43324769 26.5694779,9.72614091 Z M27.6301381,12.7261409 L30.6301381,9.72614091 C30.9230313,9.43324769 30.9230313,8.95837395 30.6301381,8.66548074 C30.3372449,8.37258752 29.8623711,8.37258752 29.5694779,8.66548074 L26.5694779,11.6654807 C26.2765847,11.958374 26.2765847,12.4332477 26.5694779,12.7261409 C26.8623711,13.0190341 27.3372449,13.0190341 27.6301381,12.7261409 Z"></path>
</svg>
