<?xml version="1.0" encoding="UTF-8"?>
<svg width="41px" height="40px" viewBox="0 0 41 40" version="1.1" xmlns="http://www.w3.org/2000/svg" xmlns:xlink="http://www.w3.org/1999/xlink">
    <path d="M31.5652147,34 L8.43478531,34 C7.09019636,34 6,32.9098335 6,31.565212 L6,8.43478801 C6,7.09019757 7.09019636,6 8.43478531,6 L31.5652147,6 C32.9098347,6 34,7.09019757 34,8.43478801 L34,31.5652431 C33.9999689,32.9098335 32.9098036,34 31.5652147,34 Z M9.65217798,7.21739401 L8.43478531,7.21739401 C7.76250637,7.21739401 7.21739264,7.76250832 7.21739264,8.43478801 L7.21739264,12.08697 L9.65217798,12.08697 L9.65217798,7.21739401 Z M9.65217798,13.304333 L7.21739267,13.304333 L7.21739267,19.391303 L9.65217798,19.391303 L9.65217798,13.304333 Z M9.65217798,20.608697 L7.21739267,20.608697 L7.21739267,26.695667 L9.65217798,26.695667 L9.65217798,20.608697 Z M9.65217801,27.913061 L7.21739267,27.913061 L7.21739267,31.565212 C7.21739267,32.2375227 7.76250637,32.782606 8.43478534,32.782606 L9.65217801,32.782606 L9.65217801,27.913061 Z M29.1304294,20.608697 L29.1304294,19.391303 L29.1304294,13.304333 L29.1304294,12.086939 L29.1304294,7.21739401 L10.8695706,7.21739401 L10.8695706,12.08697 L10.8695706,13.304364 L10.8695706,19.3913341 L10.8695706,20.6087281 L10.8695706,26.6956981 L10.8695706,27.9130921 L10.8695706,32.7826371 L29.1304294,32.7826371 L29.1304294,27.913061 L29.1304294,26.695667 L29.1304294,20.608697 Z M32.7826073,8.43478801 C32.7826073,7.76250832 32.2375247,7.21739401 31.5652147,7.21739401 L30.347822,7.21739401 L30.347822,12.08697 L32.7826073,12.08697 L32.7826073,8.43478801 Z M32.7826073,13.304333 L30.347822,13.304333 L30.347822,19.391303 L32.7826073,19.391303 L32.7826073,13.304333 Z M32.7826073,20.608697 L30.347822,20.608697 L30.347822,26.695667 L32.7826073,26.695667 L32.7826073,20.608697 Z M32.7826074,27.913061 L30.347822,27.913061 L30.347822,32.782606 L31.5652147,32.782606 C32.2375247,32.782606 32.7826074,32.2375227 32.7826074,31.565212 L32.7826074,27.913061 Z M16.1724726,25.2927769 C15.934706,25.5305438 15.5501026,25.5305438 15.3129264,25.2927769 C15.1952084,25.1750899 15.136971,25.020515 15.1357901,24.8665616 L15.1304449,24.8695449 L15.1304449,15.1494428 L15.145921,15.1494428 C15.1375925,14.9836182 15.1911063,14.8153696 15.3177122,14.6884839 C15.5554789,14.4504062 15.9400822,14.4504062 16.1772584,14.6884839 L24.6972046,19.5381399 C24.8113487,19.6525638 24.8755218,19.8074184 24.8755218,19.9691099 C24.8755218,20.1308013 24.8113487,20.2859356 24.6972046,20.4000799 L16.1724726,25.2927769 Z M16.4084679,16.2530033 L16.4144035,16.4013008 L16.3513803,16.4013008 L16.3513803,23.8233518 L23.0018546,20.0059356 L16.4084679,16.2530033 Z" stroke-linejoin="round"></path>
</svg>
